<?xml version="1.0" encoding="UTF-8" standalone="no"?>
<svg
   viewBox="0 0 256 256"
   version="1.1"
   id="svg1"
   sodipodi:docname="icon.svg"
   width="256"
   height="256"
   inkscape:version="1.4.2 (ebf0e940d0, 2025-05-08)"
   xmlns:inkscape="http://www.inkscape.org/namespaces/inkscape"
   xmlns:sodipodi="http://sodipodi.sourceforge.net/DTD/sodipodi-0.dtd"
   xmlns="http://www.w3.org/2000/svg"
   xmlns:svg="http://www.w3.org/2000/svg">
  <defs
     id="defs1" />
  <sodipodi:namedview
     id="namedview1"
     pagecolor="#ffffff"
     bordercolor="#000000"
     borderopacity="0.25"
     inkscape:showpageshadow="2"
     inkscape:pageopacity="0.0"
     inkscape:pagecheckerboard="0"
     inkscape:deskcolor="#d1d1d1"
     inkscape:zoom="1.1131408"
     inkscape:cx="-4.4917949"
     inkscape:cy="150.02595"
     inkscape:window-width="2560"
     inkscape:window-height="1011"
     inkscape:window-x="0"
     inkscape:window-y="0"
     inkscape:window-maximized="1"
     inkscape:current-layer="g6"
     showguides="true" />
  <rect
     style="fill:#7e57c2;fill-opacity:1;stroke-width:9;stroke-linecap:round;stroke-linejoin:round"
     id="rect4"
     width="256"
     height="256"
     x="0"
     y="0"
     ry="30.095026" />
  <g
     id="g4"
     transform="translate(-7.0162678,23.712214)">
    <g
       id="g5"
       transform="matrix(0.79910262,0,0,0.79910262,7.06566,21.386729)"
       style="stroke-width:1.2514">
      <g
         id="g6"
         transform="translate(0,20.79788)">
        <g
           id="g7">
          <path
             id="path4"
             style="fill:#ffffff;fill-opacity:1;stroke-width:11.2626;stroke-linecap:round;stroke-linejoin:round"
             d="m 23.57837,-34.94035 v 157.73656 l 85.86916,-17.18051 c 10.05098,-2.35522 20.62892,-0.1358 28.88564,6.0606 7.62265,6.14223 12.05216,15.40721 12.0463,25.19659 v 5.70555 h 50.71769 v -5.70555 c -0.0909,-52.393956 -48.0274,-91.648653 -99.41053,-81.406247 l -27.387819,5.45315 V -34.94035 Z m 126.80111,0 v 50.717673 h 50.7177 V -34.94035 Z"
             sodipodi:nodetypes="ccccccccccccccccc" />
          <path
             style="font-size:64.985px;line-height:87.7294px;font-family:Impact;-inkscape-font-specification:Impact;letter-spacing:0px;white-space:pre;fill:#ffffff;stroke-width:11.2626;stroke-linecap:round;stroke-linejoin:round"
             d="m 67.666751,166.94141 h 13.453926 q 5.457724,0 8.376972,0.85673 2.950979,0.85674 4.410604,2.47502 1.491355,1.61828 1.99905,3.93464 0.539426,2.28463 0.539426,7.10773 v 4.47407 q 0,4.91829 -1.015391,7.17119 -1.01539,2.2529 -3.744252,3.45868 -2.697132,1.20577 -7.076004,1.20577 h -3.585598 v 20.68859 H 67.666751 Z m 13.358733,8.78947 v 13.07316 q 0.571157,0.0317 0.98366,0.0317 1.840395,0 2.538476,-0.88847 0.729812,-0.9202 0.729812,-3.77598 v -4.22022 q 0,-2.63367 -0.825005,-3.42694 -0.825005,-0.79328 -3.426943,-0.79328 z m 31.699226,0.47597 -0.5077,5.52118 q 2.79233,-5.93369 8.0914,-6.28273 v 14.81836 q -3.52214,0 -5.17215,0.95193 -1.65001,0.95193 -2.03078,2.6654 -0.38077,1.68174 -0.38077,7.80582 v 16.62702 H 99.905402 v -42.10698 z m 39.44158,14.78662 v 10.31256 q 0,5.67985 -0.57116,8.34525 -0.57116,2.63367 -2.44328,4.95003 -1.87213,2.28462 -4.82311,3.39521 -2.91925,1.07885 -6.72696,1.07885 -4.25195,0 -7.20293,-0.9202 -2.95098,-0.95193 -4.60099,-2.82405 -1.61828,-1.90386 -2.31636,-4.56926 -0.69808,-2.69713 -0.69808,-8.05966 v -10.78853 q 0,-5.87023 1.26924,-9.17025 1.26924,-3.30002 4.56926,-5.29907 3.30002,-1.99905 8.44043,-1.99905 4.31541,0 7.39331,1.30097 3.10964,1.26924 4.79138,3.33175 1.68174,2.06252 2.28463,4.25195 0.63462,2.18944 0.63462,6.6635 z m -12.81931,-3.17309 q 0,-3.23656 -0.34904,-4.06157 -0.34904,-0.85673 -1.49136,-0.85673 -1.14231,0 -1.52308,0.85673 -0.38077,0.82501 -0.38077,4.06157 v 19.00684 q 0,2.98271 0.38077,3.90291 0.38077,0.88847 1.49135,0.88847 1.14232,0 1.49136,-0.82501 0.38077,-0.825 0.38077,-3.55387 z m 45.37527,4.28368 h -12.0895 v -4.85484 q 0,-2.53848 -0.4125,-3.42694 -0.4125,-0.9202 -1.52308,-0.9202 -1.11059,0 -1.49136,0.79327 -0.38077,0.79328 -0.38077,3.55387 v 19.86358 q 0,2.2529 0.57116,3.39521 0.57115,1.11059 1.68174,1.11059 1.30097,0 1.7452,-1.17405 0.47596,-1.17405 0.47596,-4.44233 v -5.0135 h 11.42315 q -0.0317,5.04523 -0.38077,7.5837 -0.31731,2.50675 -2.12598,5.17215 -1.77693,2.63367 -4.66445,3.9981 -2.88751,1.3327 -7.13946,1.3327 -5.426,0 -8.59909,-1.8404 -3.1731,-1.87212 -4.5058,-5.20387 -1.30097,-3.36348 -1.30097,-9.51929 v -11.96257 q 0,-5.36253 1.07886,-8.09139 1.07885,-2.72887 4.60098,-4.85484 3.52214,-2.15771 8.56736,-2.15771 5.01349,0 8.56736,2.12598 3.55387,2.12597 4.72791,5.36253 1.17405,3.23656 1.17405,9.17025 z m 20.14916,-25.16265 v 6.50484 q -3.96637,0 -4.69618,0.38078 -0.69808,0.34904 -0.69808,2.06251 v 1.3327 h 5.39426 v 6.6635 h -3.04617 v 34.42809 h -12.81931 v -34.42809 h -2.63367 v -6.6635 h 2.63367 q 0,-4.15676 0.28558,-5.55292 0.28558,-1.39616 1.39616,-2.47501 1.14232,-1.11059 3.1731,-1.68175 2.03078,-0.57115 6.31446,-0.57115 z m 15.64336,0 v 6.69523 H 207.3147 v -6.69523 z m 0,9.26544 v 42.10698 H 207.3147 v -42.10698 z m 17.80106,-9.26544 v 51.37242 h -13.20008 v -51.37242 z m 33.63482,31.0646 h -16.59529 v 9.10679 q 0,2.85579 0.4125,3.68079 0.4125,0.82501 1.58655,0.82501 1.45962,0 1.93559,-1.07886 0.50769,-1.11058 0.50769,-4.25195 v -5.55291 h 12.15296 v 3.10963 q 0,3.90291 -0.5077,5.99715 -0.47596,2.09425 -2.28462,4.47407 -1.80867,2.37982 -4.60099,3.5856 -2.7606,1.17404 -6.94908,1.17404 -4.06157,0 -7.1712,-1.17404 -3.10963,-1.17405 -4.85484,-3.20483 -1.71347,-2.06251 -2.37982,-4.5058 -0.66635,-2.47501 -0.66635,-7.17119 v -12.27988 q 0,-5.52119 1.49136,-8.69429 1.49135,-3.20482 4.88656,-4.88656 3.39522,-1.71348 7.80582,-1.71348 5.39426,0 8.88467,2.06252 3.52213,2.03078 4.9183,5.42599 1.42789,3.36348 1.42789,9.48756 z m -12.85104,-6.85388 v -3.0779 q 0,-3.26829 -0.34904,-4.22022 -0.34904,-0.95193 -1.42789,-0.95193 -1.3327,0 -1.65001,0.825 -0.31731,0.79328 -0.31731,4.34715 v 3.0779 z"
             id="text4"
             transform="scale(1.09085,0.91671633)"
             aria-label="Procfile" />
          <path
             id="path6"
             style="fill:#ffffff;fill-opacity:1;stroke-width:11.2626;stroke-linecap:round;stroke-linejoin:round"
             d="m 23.57837,142.57844 v 58.25152 L 62.414123,171.7042 Z"
             sodipodi:nodetypes="cccc" />
        </g>
      </g>
    </g>
  </g>
</svg>
